<?xml version="1.0" standalone="no"?><!DOCTYPE svg PUBLIC "-//W3C//DTD SVG 1.1//EN" "http://www.w3.org/Graphics/SVG/1.1/DTD/svg11.dtd"><svg t="1629209177576" class="icon" viewBox="0 0 1024 1024" version="1.1" xmlns="http://www.w3.org/2000/svg" p-id="3725" xmlns:xlink="http://www.w3.org/1999/xlink" width="128" height="128"><defs><style type="text/css"></style></defs><path d="M287.4 152l-89.8-67.4c-8-6-19.5-4.4-25.5 3.6s-4.4 19.5 3.6 25.5l75.3 56.5v129.3l100.7 53.7 17.1-32.1-81.4-43.4V152zM262 483.5l80.7-32.3-13.5-33.8L227.8 458l-18.3 195-65.1 30.4c-9.1 4.3-13.1 15.1-8.8 24.2 4.3 9.1 15.1 13.1 24.2 8.8l84-39.2L262 483.5zM305.8 777.5l-124.7 58.4c-9.1 4.3-13 15.1-8.8 24.2 4.3 9.1 15.1 13 24.2 8.8l142.4-66.7 21.4-142.3-36-5.4-18.5 123zM773 299.5V170.2l75.3-56.5c8-6 9.7-17.4 3.6-25.5-6-8-17.4-9.7-25.5-3.6L736.6 152v125.7l-81.4 43.4 17.1 32.1L773 299.5zM879.6 683.3l-65.1-30.4-18.3-195-101.4-40.6-13.5 33.8 80.7 32.3L780.1 677l84 39.2c9.1 4.3 20 0.3 24.2-8.8 4.3-9 0.4-19.9-8.7-24.1zM842.9 835.9l-124.7-58.4-18.5-123-36 5.4 21.4 142.3 142.4 66.7c9.1 4.3 20 0.3 24.2-8.8 4.3-9.1 0.4-20-8.8-24.2zM561.1 312.9H463c-18.1 0-32.9-14.8-32.9-32.9v-49.6c0-18.1 14.8-32.9 32.9-32.9h98.1c18.1 0 32.9 14.8 32.9 32.9V280c0 18.1-14.8 32.9-32.9 32.9z" fill="#37474F" p-id="3726"></path><path d="M532.7 266.8h-41.5c-100.4 0-182.6 82.2-182.6 182.6 0 26.4 21.6 48.1 48.1 48.1h310.6c26.4 0 48.1-21.6 48.1-48.1 0-100.4-82.2-182.6-182.7-182.6z" fill="#2E7D32" p-id="3727"></path><path d="M387.3 583a124.7 130.5 0 1 0 249.4 0 124.7 130.5 0 1 0-249.4 0Z" fill="#09350B" p-id="3728"></path><path d="M626.2 497.5V921c16.1-12.4 30-27.4 41.4-44.3V497.5h-41.4zM559.6 527.8l-23.3 46.1v384.6c14.4-1.9 28.2-5.3 41.4-10.3V507.3c-7.6 5.1-13.9 12-18.1 20.5zM446.4 507.3v440.8c13.2 4.9 27 8.4 41.4 10.3V573.8l-23.3-46.1c-4.3-8.4-10.6-15.3-18.1-20.4zM356.4 876.7c11.3 16.9 25.3 31.9 41.4 44.3V497.5h-41.4v379.2z" fill="#8BC34A" p-id="3729"></path><path d="M512 621.8l-24.3-48v384.6c8 1 16.1 1.6 24.3 1.6s16.3-0.6 24.3-1.6V573.8l-24.3 48z" fill="#2E7D32" p-id="3730"></path><path d="M577.6 507.3v440.8c17.6-6.6 33.9-15.8 48.6-27.1V497.5h-17.4c-11.3 0-22.1 3.6-31.2 9.8zM684.4 497.5h-16.8v379.2c18.9-28.4 30.4-62.2 31.3-98.8L716 531.4c1.3-18.3-13.2-33.9-31.6-33.9zM397.8 497.5V921c14.6 11.3 31 20.5 48.6 27.1V507.3c-9-6.2-19.8-9.8-31.2-9.8h-17.4zM308 531.4l17.1 246.5c1 36.5 12.4 70.4 31.3 98.8V497.5h-16.8c-18.4 0-32.9 15.6-31.6 33.9z" fill="#43A047" p-id="3731"></path><path d="M587.4 64c-4.2 40.9-36.4 72.8-75.4 72.8s-71.2-31.9-75.4-72.8h-36.5c4.4 61 52.9 109.3 111.9 109.3S619.4 125 623.9 64h-36.5z" fill="#37474F" p-id="3732"></path><path d="M493.8 161.1h36.4v36.4h-36.4z" fill="#37474F" p-id="3733"></path></svg>